# xmcd
#
# Track frame offsets: 
#        150
#        11980
#        26602
#        40404
#        54002
#        67270
#        86850
#        100132
#        114186
#        128287
#        142227
#        157704
#        173849
#        188662
#        202695
#        218627
#        237169
#        259215
#        273280
#        288567
#        303333
#        323469
#
# Disc length: 4559 seconds
#
# Revision: 0
# Processed by: cddbd v1.5.2PL0 Copyright (c) Steve Scherf et al.
# Submitted via: ExactAudioCopyFreeDBPlugin 1.0
#
DISCID=2911cd16
DTITLE=Various Artist - Ballermann Country die Westernparty 2019
DYEAR=2019
DGENRE=Country
TTITLE0=Alan Jackson - Little Bitty
TTITLE1=Truck Stop - Du bist so süß, wenn Du sauer bist
TTITLE2=Village Girls - Thank God I'm A Country Girl
TTITLE3=Gunter Gabriel - Papa trinkt Bier
TTITLE4=Ernie Oldfield - Say Hello
TTITLE5=Tom Astor - Daddy, wenn ich groß bin fahr' ich Diesel
TTITLE6=Dagmar - Lass mich damit bloß in Ruhe
TTITLE7=Maddie and Tae - Friends Don't
TTITLE8=Gunter Gabriel - Deurschland ist ...
TTITLE9=Die Ranchers - Mama, bitte schenk mir Cowboystiefel
TTITLE10=Yamboo - Oh Suzzana
TTITLE11=Ballermann Country Band - Come To Ballermann Country!
TTITLE12=Brooks and Dunn - Boot Scottin'  Boogie
TTITLE13=Gaby Baginsky - Verzeih mein Freund
TTITLE14=Western Union - Bärenstark
TTITLE15=Ronny Nash - I Wanna Dance With You On A Rainbow
TTITLE16=Carl Emroy - Ruf Teddybär 1-4
TTITLE17=Maddie and Tae - Die From A Brocken Heart
TTITLE18=Truck Stop - Eckenförde
TTITLE19=Die Ranchers - Schenk dein Herz niemals einen Cowboy
TTITLE20=Ballermann Country Band - Auf dem Rücken der Pferde
TTITLE21=Country George - Ich tausch das Ruhrgebiet nicht für den Rest
TTITLE21=der Welt ein
EXTD=
EXTT0=
EXTT1=
EXTT2=
EXTT3=
EXTT4=
EXTT5=
EXTT6=
EXTT7=
EXTT8=
EXTT9=
EXTT10=
EXTT11=
EXTT12=
EXTT13=
EXTT14=
EXTT15=
EXTT16=
EXTT17=
EXTT18=
EXTT19=
EXTT20=
EXTT21=
PLAYORDER=
